<?xml version="1.0" encoding="utf-8"?>
<!-- Generator: Adobe Illustrator 22.1.0, SVG Export Plug-In . SVG Version: 6.00 Build 0)  -->
<svg version="1.1" id="Layer_1" xmlns="http://www.w3.org/2000/svg" xmlns:xlink="http://www.w3.org/1999/xlink" x="0px" y="0px"
	 viewBox="0 0 324 85" style="enable-background:new 0 0 324 85;" xml:space="preserve">
<style type="text/css">
	.st0{fill:#3D55A5;}
	.st1{fill:#FFFFFF;}
	.st2{fill:none;stroke:#3D55A5;stroke-width:9;stroke-miterlimit:10;}
	.st3{fill:#F7F8F9;}
	.st4{fill:none;stroke:#FFFFFF;stroke-miterlimit:10;}
	.st5{fill:none;}
</style>
<rect x="-0.7" y="-27" class="st0" width="324.9" height="176.5"/>
<path class="st1" d="M100.3,44.8l-6,27c0,0-0.9,5,3.3,5.3c12.2,1.6,21.9,2.3,25.6,2.6c12.5,1,14.4,0.7,17.1-0.3
	c1.5-0.6,13.9-6.8,13.9-6.8l69.5-29.9v-2.4l-76.5-29c0,0-31.5-3.3-37.6,6.6C107.7,23.5,100.3,44.8,100.3,44.8z"/>
<g>
	<path class="st2" d="M144.3,20c-1.8,9.9-4.5,17.8-6.2,27.7c-11.8-1.1-33.6-0.9-33.6-1.2c0.1-0.3-0.6-0.6-0.5-0.9
		c1.9-7.7,3.9-15.2,5.8-22.9c0.2-1,0.1-2.4,1-2.7C117.1,18,139.3,18.7,144.3,20z"/>
	<path class="st3" d="M108.8,20c0.6-2.3,2.5-4.4,4.6-5.6c8.2-4.8,21.9-6.6,33.7-3.2c4.3,1.2,8.4,3.1,11.9,5.8c1.6,1.1-9.3,0.1-10,3
		H108.8z"/>
</g>
<g>
	<path class="st0" d="M164.5,44.2c0.1,0.2,28.5-0.7,28.5-0.6c0,0.2,0.1,1.4,0.1,1.4s-28.7,1.3-30.7,1.5c-2.6,0.1-9.1,3-10.9,4.8
		c-2.1,2-4.2,4.2-6,6.6c-1.9,2.5-4,4.5-6.3,6.6c-4.2,3.7-6.6,4.2-11.8,5.7c-1.6,0.5-3,2-4.3,3.6c0,0.3-0.2,0.5-0.4,1.1
		c-5.8-0.7-13.7-1.4-18.6-1.8c0.5-4.2-1.5-5.2-1.5-5.2c-0.8-0.5-2.3-1.4-2.9-2.2c-0.9-1.2-1-2.4-0.7-3.9c0.6-2.6,1.4-8.3,1.5-8.6
		c2.6,0.7,4.2,1.8,3.7,4.2c-0.7,3.2-0.8,3.6,2.4,4.8c4.8,1.8,9.3,1.5,13.8,1.6c2,0,4.9,0,7.2-0.5c1.2-0.2,3-1.2,3.2-2.6
		c0.4-3.6,2.9-5.3,5-5.3c1.4-0.2,2.7-0.5,4.1-0.8c0.8-0.2,5.7-4.8,11.3-7.7C155.4,44.8,160,44.2,164.5,44.2z"/>
</g>
<path class="st4" d="M109.6,19.1c-3.4,9.8-11.3,30.3-9.7,31.9"/>
<path class="st0" d="M151.7,40.1c-1.8-0.1-2.3-0.5-2.3-2.3c0.2-2.8,0.7-5.6,1-8.4c0.2-1.8,0.5-3.5,0.8-5.2c0.4-1.9,1.1-2.3,3-1.8
	c0.9,0.2,1.8,0.5,2.7,0.6c2.3,0.6,2.8,1.1,3,3.5c0.3,3.6,0.5,7.3,0.6,10.9c0.1,2.7-0.3,3-3,3C156.8,40.3,152.9,40.1,151.7,40.1z"/>
<path class="st0" d="M162.5,24.4c1.7-0.1,2.7,0.5,2.7,2.2c0.2,4.2,0.5,8.4,0.7,12.6c0.1,0.7,0.2,1.6-1,1.6c-1,0.1-1.7-0.2-1.8-1.3
	c-0.2-4.8-0.5-9.5-0.7-14.4C162.3,24.9,162.4,24.7,162.5,24.4z"/>
<path class="st0" d="M196.7,43.5c2-0.2,21-1.2,21-1.2c0.5,0.1,1.2,0.2,1.2,0.4c-2.2,0.2-19.7,2-22,2.2L196.7,43.5z"/>
<path class="st0" d="M199.1,30.2c-0.5-0.2-1-0.3-1.5-0.5c-0.6-0.3-1.2-0.7-1.8-1c0.1-0.2,0.2-0.3,0.2-0.5c1.2,0.4,2.5,0.6,3.6,1.2
	C200.3,29.9,199.8,30.3,199.1,30.2z"/>
<path class="st0" d="M172.8,35.8c0.1,0.5,0.1,0.9,0.1,1.3c0.2,3,0.2,3-3.1,3c-1.4,0.1-2-0.5-2.2-1.7c-0.2-3.2-0.5-6.3-0.7-9.5
	c-0.2-1.4,0.5-1.9,2.1-1.6c3.2,0.6,3.2,0.6,3.4,3.7C172.6,32.6,172.7,34.2,172.8,35.8L172.8,35.8z"/>
<path class="st0" d="M175.9,31c0-1.1,0.5-1.4,1.6-1.2c2.3,0.5,2.3,0.5,2.4,3c0.1,1.3,0.3,4.6,0.3,5c0.2,2.3,0.1,2.3-2.2,2.4
	c-1.1,0.1-1.6-0.4-1.6-1.4C176.3,36.2,176.1,33.6,175.9,31z"/>
<path class="st0" d="M183.7,32.3c0.1-0.9,0.5-1.1,1.4-0.9c2,0.5,2,0.5,2.2,2.5c0.1,1.2,0.2,4.1,0.2,4.5c0.1,1.9-0.1,2-1.9,2
	c-0.9,0.1-1.4-0.3-1.5-1.2C184,36.9,183.8,34.7,183.7,32.3z"/>
<path class="st0" d="M190.2,33.6c0.1-0.6,0.5-0.8,1.2-0.7c1.6,0.3,1.7,0.5,1.8,2c0.1,1,0.2,3.1,0.2,3.1c0,0.3,0.1,0.6,0.1,0.9
	c0.1,1.4-0.1,1.6-1.6,1.7c-0.8,0.1-1.2-0.3-1.3-1C190.5,37.7,190.4,35.7,190.2,33.6z"/>
<path class="st0" d="M195,34.4c0.2-0.5,0.5-0.7,1.1-0.5c1.4,0.3,1.6,0.5,1.6,1.9c0.1,0.9,0.2,2.9,0.2,2.9c0,0.2,0.1,0.5,0.1,0.8
	c0.1,1.2-0.2,1.4-1.4,1.5c-0.8,0.1-1.1-0.2-1.2-0.9C195.3,38.1,195.1,36.2,195,34.4z"/>
<path class="st0" d="M199.7,35.5c0.2-0.5,0.5-0.5,0.9-0.5c1.1,0.2,1.3,0.5,1.4,1.6c0.1,0.8,0.3,3,0.3,3.3c0.1,0.9-0.2,1.1-1.1,1.2
	c-0.7,0.2-1-0.2-1-0.8C200,38.7,199.8,37.1,199.7,35.5z"/>
<path class="st0" d="M204.3,36.1c0.2-0.3,0.4-0.4,0.8-0.3c0.9,0.2,1,0.3,1.1,1.3c0.1,0.7,0.2,2.6,0.3,2.7c0.1,0.7-0.2,0.9-1,1
	c-0.5,0.2-0.9-0.2-0.9-0.7C204.5,38.9,204.4,37.5,204.3,36.1z"/>
<path class="st0" d="M208.1,37.2c0.2-0.2,0.4-0.2,0.7-0.2c0.7,0.1,0.8,0.3,0.8,1c0.1,0.6,0.1,1.1,0.1,1.7l0,0c0,0.2,0,0.4,0,0.5
	c0.1,0.5-0.2,0.7-0.7,0.8s-0.7-0.2-0.7-0.5C208.3,39.5,208.2,38.4,208.1,37.2z"/>
<path class="st0" d="M211,37.6c0.2-0.1,0.4-0.1,0.6-0.1c0.5,0.1,0.7,0.3,0.7,0.8c0.1,0.5,0.1,1.1,0.1,1.6l0,0c0,0.2,0,0.3,0,0.5
	c0,0.4-0.2,0.5-0.5,0.6c-0.4,0.1-0.6-0.1-0.7-0.5C211.1,39.6,211.1,38.6,211,37.6z"/>
<path class="st0" d="M213.8,38.3c0.2-0.1,0.4-0.1,0.6-0.1c0.5,0.1,0.7,0.3,0.7,0.7c0.1,0.5,0.1,0.9,0.1,1.3l0,0c0,0.2,0,0.3,0,0.4
	c0,0.3-0.2,0.5-0.5,0.5c-0.4,0.1-0.6-0.1-0.7-0.4C214,40,213.9,39.1,213.8,38.3z"/>
<line class="st5" x1="268.3" y1="64.6" x2="268.5" y2="64.6"/>
<path class="st0" d="M216.4,38.9c0.2-0.1,0.3-0.1,0.5-0.1c0.4,0.1,0.6,0.3,0.6,0.6c0.1,0.4,0.1,0.8,0.1,1.1l0,0c0,0.2,0,0.3,0,0.3
	c0,0.3-0.2,0.4-0.4,0.4c-0.3,0.1-0.5-0.1-0.6-0.3C216.6,40.3,216.5,39.6,216.4,38.9z"/>
</svg>
